<svg xmlns="http://www.w3.org/2000/svg" width="159px" height="110px">
  <defs>
    <linearGradient id="grad" x1="0%" y1="0%" x2="100%" y2="60%">
      <stop offset="0%" stop-color="#f00" />
      <stop offset="100%" stop-color="#330000" />
    </linearGradient>
  </defs>
  <path d="m154 17.5c-1.82-6.73-7.07-12-13.8-13.8-9.04-3.49-96.6-5.2-122 0.1-6.73 1.82-12 7.07-13.8 13.8-4.08 17.9-4.39 56.6 0.1 74.9 1.82 6.73 7.07 12 13.8 13.8 17.9 4.12 103 4.7 122 0 6.73-1.82 12-7.07 13.8-13.8 4.35-19.5 4.66-55.8-0.1-75z" fill="url(#grad)"/>
  <path d="m105 55-40.8-23.4v46.8z" fill="#fff"/>
</svg>
